solid 
 facet normal  0.000000e+00  0.000000e+00  1.000000e+00
   outer loop
     vertex  1.749999e+02 -7.499990e+01  1.560000e+00
     vertex  1.249998e+02 -1.249999e+02  1.560000e+00
     vertex  1.749999e+02 -1.249999e+02  1.560000e+00
   endloop
 endfacet
 facet normal  0.000000e+00  0.000000e+00  1.000000e+00
   outer loop
     vertex  1.749999e+02 -7.499990e+01  1.560000e+00
     vertex  1.249998e+02 -7.499990e+01  1.560000e+00
     vertex  1.249998e+02 -1.249999e+02  1.560000e+00
   endloop
 endfacet
 facet normal  0.000000e+00  0.000000e+00 -1.000000e+00
   outer loop
     vertex  1.249998e+02 -7.499990e+01 -5.000000e-02
     vertex  1.749999e+02 -7.499990e+01 -5.000000e-02
     vertex  1.749999e+02 -1.249999e+02 -5.000000e-02
   endloop
 endfacet
 facet normal  0.000000e+00  0.000000e+00 -1.000000e+00
   outer loop
     vertex  1.249998e+02 -7.499990e+01 -5.000000e-02
     vertex  1.749999e+02 -1.249999e+02 -5.000000e-02
     vertex  1.249998e+02 -1.249999e+02 -5.000000e-02
   endloop
 endfacet
 facet normal  0.000000e+00 -1.000000e+00  0.000000e+00
   outer loop
     vertex  1.249998e+02 -1.249999e+02  0.000000e+00
     vertex  1.749999e+02 -1.249999e+02  0.000000e+00
     vertex  1.749999e+02 -1.249999e+02  1.510000e+00
   endloop
 endfacet
 facet normal  0.000000e+00 -1.000000e+00  0.000000e+00
   outer loop
     vertex  1.249998e+02 -1.249999e+02  0.000000e+00
     vertex  1.749999e+02 -1.249999e+02  1.510000e+00
     vertex  1.249998e+02 -1.249999e+02  1.510000e+00
   endloop
 endfacet
 facet normal -1.000000e+00  0.000000e+00  0.000000e+00
   outer loop
     vertex  1.249998e+02 -7.499990e+01  0.000000e+00
     vertex  1.249998e+02 -1.249999e+02  0.000000e+00
     vertex  1.249998e+02 -1.249999e+02  1.510000e+00
   endloop
 endfacet
 facet normal -1.000000e+00  0.000000e+00  0.000000e+00
   outer loop
     vertex  1.249998e+02 -7.499990e+01  0.000000e+00
     vertex  1.249998e+02 -1.249999e+02  1.510000e+00
     vertex  1.249998e+02 -7.499990e+01  1.510000e+00
   endloop
 endfacet
 facet normal  0.000000e+00  1.000000e+00  0.000000e+00
   outer loop
     vertex  1.749999e+02 -7.499990e+01  0.000000e+00
     vertex  1.249998e+02 -7.499990e+01  0.000000e+00
     vertex  1.249998e+02 -7.499990e+01  1.510000e+00
   endloop
 endfacet
 facet normal  0.000000e+00  1.000000e+00 -0.000000e+00
   outer loop
     vertex  1.749999e+02 -7.499990e+01  0.000000e+00
     vertex  1.249998e+02 -7.499990e+01  1.510000e+00
     vertex  1.749999e+02 -7.499990e+01  1.510000e+00
   endloop
 endfacet
 facet normal  1.000000e+00  0.000000e+00  0.000000e+00
   outer loop
     vertex  1.749999e+02 -1.249999e+02  0.000000e+00
     vertex  1.749999e+02 -7.499990e+01  0.000000e+00
     vertex  1.749999e+02 -7.499990e+01  1.510000e+00
   endloop
 endfacet
 facet normal  1.000000e+00  0.000000e+00  0.000000e+00
   outer loop
     vertex  1.749999e+02 -1.249999e+02  0.000000e+00
     vertex  1.749999e+02 -7.499990e+01  1.510000e+00
     vertex  1.749999e+02 -1.249999e+02  1.510000e+00
   endloop
 endfacet
 facet normal -0.000000e+00  0.000000e+00 -1.000000e+00
   outer loop
     vertex  1.749999e+02 -7.499990e+01  0.000000e+00
     vertex  1.249998e+02 -1.249999e+02  0.000000e+00
     vertex  1.249998e+02 -7.499990e+01  0.000000e+00
   endloop
 endfacet
 facet normal  0.000000e+00 -0.000000e+00 -1.000000e+00
   outer loop
     vertex  1.749999e+02 -7.499990e+01  0.000000e+00
     vertex  1.749999e+02 -1.249999e+02  0.000000e+00
     vertex  1.249998e+02 -1.249999e+02  0.000000e+00
   endloop
 endfacet
 facet normal  0.000000e+00  0.000000e+00  1.000000e+00
   outer loop
     vertex  1.749999e+02 -7.499990e+01  1.510000e+00
     vertex  1.249998e+02 -7.499990e+01  1.510000e+00
     vertex  1.249998e+02 -1.249999e+02  1.510000e+00
   endloop
 endfacet
 facet normal  0.000000e+00  0.000000e+00  1.000000e+00
   outer loop
     vertex  1.749999e+02 -7.499990e+01  1.510000e+00
     vertex  1.249998e+02 -1.249999e+02  1.510000e+00
     vertex  1.749999e+02 -1.249999e+02  1.510000e+00
   endloop
 endfacet
endsolid
